<?xml version="1.0" encoding="iso-8859-1"?>
<!-- Uploaded to: SVG Repo, www.svgrepo.com, Generator: SVG Repo Mixer Tools -->
<svg height="800px" width="800px" version="1.1" id="Layer_1" xmlns="http://www.w3.org/2000/svg" xmlns:xlink="http://www.w3.org/1999/xlink" 
	 viewBox="0 0 512 512" xml:space="preserve">
<path style="fill:#575771;" d="M500.859,294.944v133.559c0,46.857-58.655,83.474-133.559,83.474S233.74,475.36,233.74,428.503
	V294.944c0-9.238,7.456-16.695,16.695-16.695h23.263c-4.342,5.454-6.568,11.13-6.568,16.695c0,23.707,41.181,50.085,100.169,50.085
	s100.169-26.378,100.169-50.085c0-5.565-2.226-11.241-6.456-16.695h23.151C493.402,278.249,500.859,285.706,500.859,294.944z"/>
<path style="fill:#494965;" d="M500.859,428.503V294.944c0-9.238-7.456-16.695-16.695-16.695h-23.151
	c4.23,5.454,6.456,11.13,6.456,16.695c0,23.707-41.181,50.085-100.169,50.085v166.949
	C442.203,511.978,500.859,475.36,500.859,428.503z"/>
<path style="fill:#727295;" d="M367.299,211.47c-74.904,0-133.559,36.617-133.559,83.474s58.655,83.474,133.559,83.474
	s133.559-36.617,133.559-83.474S442.203,211.47,367.299,211.47z"/>
<path style="fill:#696989;" d="M500.859,294.944c0-46.857-58.655-83.474-133.559-83.474v166.949
	C442.203,378.419,500.859,341.801,500.859,294.944z"/>
<path style="fill:#E4E9EE;" d="M367.299,345.029c-58.989,0-100.169-26.378-100.169-50.085c0-5.565,2.226-11.241,6.568-16.695
	c13.69-17.919,48.414-33.39,93.602-33.39s79.912,15.471,93.713,33.39c4.23,5.454,6.456,11.13,6.456,16.695
	C467.469,318.651,426.288,345.029,367.299,345.029z"/>
<path style="fill:#CED7E2;" d="M467.469,294.944c0-5.565-2.226-11.241-6.456-16.695c-13.801-17.919-48.525-33.39-93.713-33.39
	v100.169C426.288,345.029,467.469,318.651,467.469,294.944z"/>
<path style="fill:#BA4931;" d="M383.994,311.639h-33.39c-9.217,0-16.695-7.473-16.695-16.695c0-9.222,7.478-16.695,16.695-16.695
	h33.39c9.217,0,16.695,7.473,16.695,16.695C400.689,304.166,393.211,311.639,383.994,311.639z"/>
<path style="fill:#AD3D25;" d="M383.994,278.249h-16.695v33.39h16.695c9.217,0,16.695-7.473,16.695-16.695
	C400.689,285.722,393.211,278.249,383.994,278.249z"/>
<path style="fill:#575771;" d="M267.13,294.944v133.559c0,46.857-58.655,83.474-133.559,83.474S0.012,475.36,0.012,428.503V294.944
	c0-9.238,7.456-16.695,16.695-16.695h23.263c-4.342,5.454-6.568,11.13-6.568,16.695c0,23.707,41.181,50.085,100.169,50.085
	s100.169-26.378,100.169-50.085c0-5.565-2.226-11.241-6.456-16.695h23.151C259.673,278.249,267.13,285.706,267.13,294.944z"/>
<path style="fill:#494965;" d="M267.13,428.503V294.944c0-9.238-7.456-16.695-16.695-16.695h-23.151
	c4.23,5.454,6.456,11.13,6.456,16.695c0,23.707-41.181,50.085-100.169,50.085v166.949C208.474,511.978,267.13,475.36,267.13,428.503
	z"/>
<path style="fill:#727295;" d="M133.571,211.47c-74.904,0-133.559,36.617-133.559,83.474s58.655,83.474,133.559,83.474
	s133.559-36.617,133.559-83.474S208.474,211.47,133.571,211.47z"/>
<path style="fill:#696989;" d="M267.13,294.944c0-46.857-58.655-83.474-133.559-83.474v166.949
	C208.474,378.419,267.13,341.801,267.13,294.944z"/>
<path style="fill:#E4E9EE;" d="M133.571,345.029c-58.989,0-100.169-26.378-100.169-50.085c0-5.565,2.226-11.241,6.568-16.695
	c13.69-17.919,48.414-33.39,93.602-33.39s79.912,15.471,93.713,33.39c4.23,5.454,6.456,11.13,6.456,16.695
	C233.74,318.651,192.56,345.029,133.571,345.029z"/>
<path style="fill:#CED7E2;" d="M233.74,294.944c0-5.565-2.226-11.241-6.456-16.695c-13.801-17.919-48.525-33.39-93.713-33.39
	v100.169C192.56,345.029,233.74,318.651,233.74,294.944z"/>
<path style="fill:#BA4931;" d="M150.266,311.639h-33.39c-9.217,0-16.695-7.473-16.695-16.695c0-9.222,7.478-16.695,16.695-16.695
	h33.39c9.217,0,16.695,7.473,16.695,16.695C166.961,304.166,159.483,311.639,150.266,311.639z"/>
<path style="fill:#AD3D25;" d="M150.266,278.249h-16.695v33.39h16.695c9.217,0,16.695-7.473,16.695-16.695
	C166.961,285.722,159.483,278.249,150.266,278.249z"/>
<path style="fill:#BA4931;" d="M498.299,33.057L256,78.133L19.712,122.096c-1.003,0.223-2.002,0.334-3.005,0.334
	c-7.902,0-14.915-5.565-16.361-13.69c-1.781-9.015,4.228-17.697,13.356-19.366L256,44.298L492.289,0.335
	c9.016-1.781,17.698,4.229,19.366,13.356C513.435,22.706,507.425,31.388,498.299,33.057z"/>
<path style="fill:#AD3D25;" d="M498.299,33.057L256,78.133V44.298L492.289,0.335c9.016-1.781,17.698,4.229,19.366,13.356
	C513.435,22.706,507.425,31.388,498.299,33.057z"/>
<path style="fill:#BA4931;" d="M497.185,133.449L256,161.496L18.598,189.099c-0.667,0.111-1.223,0.111-1.891,0.111
	c-8.347,0-15.582-6.233-16.584-14.803c-1.114-9.127,5.454-17.363,14.693-18.476L256,127.884l237.402-27.602
	c9.125-1.113,17.362,5.454,18.475,14.69C512.99,124.1,506.424,132.336,497.185,133.449z"/>
<path style="fill:#AD3D25;" d="M497.185,133.449L256,161.496v-33.612l237.402-27.602c9.125-1.113,17.362,5.454,18.475,14.69
	C512.99,124.1,506.424,132.336,497.185,133.449z"/>
</svg>