<?xml version="1.0" encoding="utf-8"?>
<!-- Uploaded to: SVG Repo, www.svgrepo.com, Generator: SVG Repo Mixer Tools -->
<!DOCTYPE svg PUBLIC "-//W3C//DTD SVG 1.1//EN" "http://www.w3.org/Graphics/SVG/1.1/DTD/svg11.dtd">
<svg fill="#000000" version="1.1" id="Layer_1" xmlns="http://www.w3.org/2000/svg" xmlns:xlink="http://www.w3.org/1999/xlink" 
	 width="800px" height="800px" viewBox="0 0 512 512" enable-background="new 0 0 512 512" xml:space="preserve">
<g>
	<path d="M451.591,309.084L95.326,405.483c-6.591,1.808-10.949,8.344-9.825,15.238c1.206,7.377,8.163,12.385,15.531,11.181
		l364.282-59.38c1.062-0.175,2.188-0.412,3.249-0.698c17.338-4.69,27.574-22.534,22.885-39.863
		C486.772,314.639,468.913,304.393,451.591,309.084z"/>
	<path d="M413.905,419.121L29.498,473.026c-6.8,0.973-11.934,6.964-11.648,13.968c0.316,7.465,6.624,13.265,14.089,12.955
		l387.831-16.187c1.029-0.048,2.123-0.143,3.154-0.286c17.78-2.487,30.157-18.921,27.669-36.694
		C448.105,429.008,431.672,416.625,413.905,419.121z"/>
	<path d="M396.586,38.634c-50.712,0-102.041,18.209-102.041,53.009v13.982c-13.039-2.763-27.09-4.219-41.141-4.219
		c-50.712,0-102.058,18.208-102.058,53.001v13.589c-12.481-2.501-25.826-3.82-39.174-3.82c-50.712,0-102.058,18.209-102.058,53.001
		c0,2.734,0,75.728,0,78.46c0,34.8,51.346,53.01,102.058,53.01s102.042-18.209,102.042-53.01v-13.695
		c12.493,2.52,25.806,3.933,39.189,3.933c50.711,0,102.041-18.208,102.041-53.001v-13.963c13.023,2.768,27.09,4.194,41.141,4.194
		c50.711,0,102.056-18.209,102.056-53.001c0-2.736,0-75.727,0-78.461C498.642,56.843,447.297,38.634,396.586,38.634z
		 M112.173,237.731c-46.195,0-69.03-15.775-69.603-20.538c0.588-4.794,23.454-20.562,69.603-20.562
		c46.163,0,68.998,15.768,69.586,20.531C181.188,221.956,158.383,237.731,112.173,237.731z M253.404,174.961
		c-46.195,0-69.031-15.777-69.603-20.538c0.587-4.795,23.456-20.562,69.603-20.562c46.148,0,69,15.767,69.586,20.53
		C322.418,159.184,299.6,174.961,253.404,174.961z M396.586,112.189c-46.165,0-69-15.769-69.586-20.53
		c0.569-4.793,23.374-20.57,69.586-20.57c46.193,0,69.03,15.777,69.601,20.538C465.601,96.42,442.732,112.189,396.586,112.189z"/>
	<path d="M396.586,80.083c-14.897,0-26.974,5.173-26.974,11.561c0,6.379,12.076,11.552,26.974,11.552
		c14.896,0,26.972-5.173,26.972-11.552C423.558,85.256,411.481,80.083,396.586,80.083z"/>
	<path d="M253.404,142.854c-14.897,0-26.973,5.173-26.973,11.552c0,6.386,12.075,11.561,26.973,11.561
		c14.881,0,26.955-5.175,26.955-11.561C280.359,148.028,268.285,142.854,253.404,142.854z"/>
	<path d="M112.173,205.625c-14.897,0-26.972,5.175-26.972,11.553c0,6.387,12.074,11.554,26.972,11.554
		c14.881,0,26.956-5.167,26.956-11.554C139.129,210.8,127.054,205.625,112.173,205.625z"/>
</g>
</svg>